<?xml version="1.0" encoding="UTF-8"?>
<svg xmlns="http://www.w3.org/2000/svg" xmlns:xlink="http://www.w3.org/1999/xlink" width="2048" height="2048" viewBox="0 0 2048 2048" style="background: transparent;"><path d="M0 0L2048 0L2048 2048L0 2048L0 0Z"/><path fill="#795D48" d="M747.46 461.735C721.353 447.205 720.104 423.421 733.933 398.834C735.942 395.262 741.154 388.401 745.277 387.394C751.807 394.198 733.256 426.083 742.109 436.925C745.444 431.825 747.704 417.932 750.272 411.532C754.155 401.859 769.722 364.573 783.646 374.035C783.78 374.644 783.913 375.253 784.047 375.862C776.299 383.776 752.336 443.645 758.884 448.73C761.911 444.934 764.869 416.598 775.706 412.954L778.488 413.602C782.921 421.199 770.228 434.86 773.748 447.073L775.274 447.733C790.548 439.591 795.052 401.496 808.905 401.084C819.71 407.463 812.022 432.564 807.168 441.082C802.865 448.63 795.25 454.589 787.974 459.232C793 492.003 803.476 510.926 830.516 530.483L831.714 531.34C826.961 518.68 816.64 475.214 831.085 467.851C832.722 468.089 833.284 467.79 834.406 469.176C841.215 477.593 828.939 517.132 857.642 538.839C864.761 544.223 873.172 547.173 881.421 550.33C876.538 540.317 858.317 502.526 879.792 501.349C886.275 505.097 880.429 514.548 882.664 519.66C888.447 532.887 895.903 558.892 903.614 569.931C918.792 564.914 924.92 563.317 940.841 564.171C948.366 541.752 961.813 518.985 957.852 496.937C956.799 491.074 955.889 485.077 961.303 482.035C964.925 483.045 965.826 485.161 967.784 488.237C975.79 500.813 971.021 522.513 966.599 536.228C965.362 540.052 964.008 543.837 962.539 547.577C986.868 532.901 998.38 518.527 1006.5 490.465C1010.2 477.655 1007.51 464.093 1013.19 456.093L1014.91 455.293C1031.63 463.44 1017.19 506.663 1012.68 519.55C1031.34 501.675 1045.26 484.747 1050.69 458.479C1036.88 451.771 1032.35 445.966 1024.25 433.017C1020.02 426.25 1011.12 415.026 1013.36 406.47C1019.23 400.439 1027.49 413.266 1030.86 417.722C1038.76 428.167 1046.34 438.614 1056.71 446.883C1055.37 439.176 1050.27 417.345 1056.24 411.795C1067.61 413.44 1067.49 440.186 1070.36 445.376C1072.74 433.711 1062.22 398.211 1053.57 389.064C1051.44 386.806 1047.58 379.635 1046.55 376.559C1047.3 373.229 1046.44 374.517 1049.19 372.547C1068.53 371.126 1083.76 417.087 1086.56 432.466L1087.56 432.699C1098.29 415.309 1079.62 399.322 1084.51 387.67C1093.87 383.151 1127.16 431.99 1085.38 456.277C1085.29 482.374 1082.02 498.716 1063.06 518.493C1036.82 545.876 987.993 549.006 964.33 577.55L962.705 590.491C977.852 570.618 992.931 565.123 1017.02 564.381C1008.39 595.972 1002.43 610.066 967.05 609.182L966.593 610.352C959.174 628.925 948.746 641.962 946.945 662.922C944.404 692.505 965.175 700.486 970.009 726.763C1000.48 723.228 1000.48 735.522 1023.56 744.634C1064.49 759.829 1108.41 743.113 1151.51 748.782C1181.75 752.76 1178.66 762.284 1200.65 775.151C1212.22 781.921 1247.77 774.97 1240.28 806.067L1239.49 807.947C1234.04 821.184 1225.34 810.597 1219.87 802.944C1220.79 830.08 1222.03 835.094 1212.4 862.052C1200.7 894.815 1220.56 908.576 1247.66 920.55C1263.05 926.813 1261.24 935.382 1260.7 949.78C1259.37 984.762 1259.63 1026.77 1277.2 1057.95C1272.7 1058.11 1268.01 1058.47 1263.49 1058.75C1259.64 1093.5 1257.34 1090.79 1223.48 1090.11C1227.96 1080.74 1233.46 1073.99 1238.27 1065.23C1255.16 1034.45 1246.27 978.328 1227.01 950.833C1215.9 934.973 1178.28 923.777 1160.12 913.358C1181.78 957.262 1209.36 937.761 1164.5 987.509C1145.29 1008.82 1124.69 1045.49 1123.91 1075.45L1112.25 1072.22C1105.95 1095.33 1093.7 1090.36 1073.07 1090C1080.44 1075.64 1086.41 1071.44 1094.34 1059.21C1111.15 1033.25 1130.1 1007.31 1139.39 977.624C1149.64 944.904 1128.1 931.569 1111.29 908.095C1106.01 900.706 1101.46 893.516 1096.91 885.627C1063.74 898.729 1037.3 902.938 1001.83 902.187C989.599 940.275 975.899 976.886 977.756 1017.22C978.089 1024.46 977.067 1033.28 977.805 1040.34C978.776 1049.63 983.006 1058.36 983.927 1067.96C982.635 1069.51 978.721 1068.89 975.007 1069.59C971.604 1074.23 975.503 1079.38 971.13 1086.25C963.122 1092.68 923.033 1090.29 910.486 1090.2C916.223 1074.76 922.968 1067.71 933.56 1055.65C942.426 1010.2 941.678 963.407 931.365 918.27C926.352 896.882 921.004 884.647 917.631 861.592C887.843 839.066 869.023 808.018 875.234 769.071C876.454 761.421 882.396 741.777 888.662 737.437C889.411 741.284 882.271 759.658 880.908 766.009C878.979 774.842 878.535 783.935 879.594 792.914C883.384 823.825 900.54 842.032 923.641 860.009C893.448 796.776 953.631 780.249 963.71 729.475C966.118 717.343 949.676 700.788 945.476 688.011C941.293 675.288 941.069 670.233 941.058 656.502C939.372 654.081 938.908 653.393 937.625 650.756C938.013 647.501 937.267 648.154 938.92 646.696C940.398 649.571 940.096 649.576 942.234 651.837C946.316 644.354 949.102 634.787 952.882 626.945C955.281 621.966 961.065 613.508 959.825 608.192L956.489 606.59C957.027 596.929 956.977 587.566 956.987 577.906C951.022 576.297 948.464 575.238 942.955 572.851C911.788 603.793 894.415 571.11 887.38 543.63C885.05 534.531 879.826 531.092 877.699 518.316C876.837 515.217 876.89 514.945 875.324 512.192L875.139 513.387C873.381 525.355 877.491 530.523 881.966 540.963C884.356 546.538 888.485 555.156 881.642 559.214C870.894 565.588 850.349 554.209 840 549.867C813.935 538.929 783.161 525.761 768.204 500.41C761.258 488.296 758.178 472.654 755.365 459.103C763.857 461.383 767.86 461.755 776.594 462.74C784.768 492.295 793.342 520.178 821.484 535.912C826.534 538.723 831.782 541.162 837.186 543.209C806.335 520.917 790.118 504.465 783.828 464.83C783.504 462.776 783.218 460.715 782.972 458.65C806.064 439.923 807.129 436.198 810.571 406.246C805.094 423.939 800.858 443.019 783.453 453.149C776.008 457.482 758.423 459.775 754.232 450.042C749.629 439.349 752.927 422.755 756.865 412.064C763.008 395.561 768.556 389.116 779.395 376.486C776.691 376.541 775.19 377.556 773.343 379.775C756.929 399.506 746.38 427.146 752.049 452.602C725.802 435.214 735.528 414.665 744.885 390.128C727.29 415.789 719.258 442.076 752.612 459.078L752.666 460.617C755.566 534.076 822.335 542.346 874.176 571.236C881.305 577.271 885.082 585.463 886.106 594.366C886.687 599.417 882.682 607.506 882.791 608.643C883.399 614.995 888.977 621.879 889.146 628.566C889.524 643.593 883.534 658.039 878.148 671.718C867.416 698.977 861.799 727.306 866.685 756.533C867.333 760.516 870.08 774.904 869.645 777.83C859.638 777.434 858.003 724.895 860.42 716.249C863.319 705.876 864.179 694.214 868.399 684.01C873.842 661.38 895.146 633.312 875.84 612.685C876.179 613.048 875.967 607.618 875.812 606.859C865.52 607.029 851.797 612.98 842.929 603.928C838.008 598.905 826.797 572.841 829.449 566.468C835.122 563.88 852.853 570.097 858.953 572.403C863.763 574.225 868.382 576.517 872.743 579.245L873.441 578.789C868.707 573.317 864.1 571.143 857.646 568.231C805.157 544.55 751.152 528.843 747.46 461.735Z"/><path d="M969.357 730.88C994.833 729.385 996.816 736.964 1018.47 748.071C1029.69 753.828 1039.77 754.735 1052.47 756.017C1088.59 759.665 1149.74 740.939 1178.92 765.124C1185.12 770.26 1191.28 777.735 1199.35 780.639C1211.87 785.15 1230.69 780.416 1235.34 797.247L1234.91 798.627C1227.92 797.606 1225.39 797.108 1218.65 794.313L1208.3 788.19C1214.13 801.539 1215.24 804.402 1216.24 818.798C1218.32 848.589 1188.35 882.189 1214.77 906.704C1226.25 917.353 1242.23 924.151 1255.64 930.612L1255.76 932.165C1256.3 939.881 1255.87 947.26 1255.52 954.958C1254.12 986.133 1255.44 1025.63 1268.62 1054.42C1265.43 1054.66 1260.69 1054.25 1258.87 1056.74C1251.62 1066.67 1265.13 1079.66 1246.65 1084.78C1245.21 1085.17 1234.5 1084.88 1232.28 1084.83C1236.41 1076.7 1241.85 1069.72 1245.34 1061.41C1258.1 1031.08 1251.59 1003.71 1243.62 973.785C1226.46 909.4 1142.67 928.328 1124.66 865.838C1123.63 862.282 1120.75 851.574 1119.09 848.914C1119.01 855.855 1118.99 860.921 1119.59 867.819C1088.25 891.497 1040.96 895.845 1003.1 897.324C1010.69 873.168 1021.34 846.126 1003.14 824.44C1012.76 857.492 1005.22 874.825 995.051 906.88C983.886 942.077 971.084 976.759 972.282 1014.2C972.634 1038.7 970.155 1037.76 977.536 1062.46L976.484 1063.71C970.138 1064.04 968.735 1064.29 968.162 1071.79C966.918 1088.07 964.954 1085.09 946.665 1084.88C950.811 1077.07 956.168 1067.57 958.292 1059.13C964.221 1035.58 965.33 1009.77 966.605 985.552C966.938 979.22 962.993 971.588 963.193 965.112C965.453 947.988 968.476 932.28 968.655 914.889C968.903 890.883 972.4 870.355 954.946 850.987C968.382 893.253 965.882 922.761 958.09 965.059C957.214 969.814 961.962 980.365 961.656 985.766C960.382 1013.99 959.039 1044.01 949.011 1070.36C954.72 1030.74 956.811 996.701 954.18 956.8C952.972 938.485 957.397 918.204 952.221 899.474C945.69 869.881 917.08 858.768 920.347 825.343C924.36 784.283 961.262 770.629 969.357 730.88Z"/><path fill="#795D48" d="M1204.85 911.044C1214.58 915.014 1242.55 933.222 1249.66 942.314C1253.98 947.832 1251.57 955.217 1250.45 961.509C1247.31 962.499 1248.86 953.05 1247.9 950.51C1247.12 948.464 1246.65 944.332 1244.85 942.5C1233.71 931.165 1218.69 923.306 1207.08 912.585C1206.76 912.368 1206.44 912.151 1206.12 911.935L1204.85 911.044Z"/><path fill="#795D48" d="M1219.87 802.944C1219.29 798.999 1214.91 796.669 1218.65 794.313C1225.39 797.108 1227.92 797.606 1234.91 798.627C1240.32 800.761 1238.05 800.557 1240.28 806.067L1239.49 807.947C1234.04 821.184 1225.34 810.597 1219.87 802.944Z"/><path d="M875.324 512.192C875.673 510.848 876.041 507.716 877.131 506.777L877.387 506.731C878.511 507.592 877.741 516.592 877.699 518.316C876.837 515.217 876.89 514.945 875.324 512.192Z"/><path d="M1120.55 872.202C1130.11 890.429 1136.82 899.248 1154.4 910.184C1163.86 939.43 1173.88 936.505 1184.98 954.689C1178.93 963.345 1168.4 973.875 1161.35 982.584C1142.73 1005.59 1121.02 1039.16 1118.22 1069.16C1102.56 1066.25 1109.08 1071.93 1102.63 1082.85C1095.59 1085.71 1089.29 1085.04 1081.73 1084.96C1087.4 1074.4 1092.26 1072.87 1097.07 1065.05C1113.51 1038.31 1133.27 1012.67 1143.38 982.697C1147.27 971.161 1148.83 948.962 1141.76 937.922C1126.44 919.137 1113.73 905.101 1101.61 883.261C1109.48 879.282 1113.37 877.192 1120.55 872.202Z"/><path fill="#795D48" d="M1145.52 923.652C1151.31 926.631 1154.59 931.839 1159.14 936.244C1176.76 953.322 1177.6 957.881 1158.53 973.313C1157.83 973.761 1156.18 975.249 1155.28 974.838C1155.33 975.202 1166.59 956.362 1168 953.395C1160.13 943.391 1152.42 934.525 1145.52 923.652Z"/><path d="M1051.73 377.051C1072.73 388.919 1080.34 428.141 1081.5 449.975C1105.46 427.364 1094.16 413.619 1086.61 388.446C1087.99 390.461 1089.35 392.496 1090.68 394.55C1106.53 419.196 1107.16 437.234 1081.05 453.908C1082.11 524.646 1034.24 532.143 979.432 557.641C973.923 560.204 965.614 569.477 959.012 573.458C952.063 574.443 949.918 571.794 943.995 567.742C951.515 547.029 961.338 530.721 963.386 507.655C964.091 499.721 961.759 495.378 962.284 488.586L963.411 489.197C977.398 510.068 951.011 548.356 960.347 557.965C969.833 561.099 984.408 552.482 993.616 548.122C1040.92 527.217 1074.96 514.8 1077.56 456.23C1071.79 457.872 1066.05 459.639 1060.35 461.532L1057.07 470.643C1044.62 504.691 1032.82 523.604 998.977 539.346C1004.85 533.273 1012.63 527.062 1018.88 521.085C1038.86 501.983 1049.53 484.524 1055.13 457.702C1033.77 440.958 1024.26 432.358 1015.28 404.723C1032.99 423.683 1032.73 436.658 1060.64 454.856C1066.39 453.811 1072.38 452.021 1078.05 450.484C1077.45 409.933 1073.41 408.82 1051.73 377.051Z"/><path d="M923.364 864.625C956.19 888.236 949.341 925.269 949.3 960.426C949.285 972.912 950.658 985.455 950.596 997.994C950.212 1027.34 946.372 1056.54 939.156 1084.98L923.75 1085.11L920.849 1084.98L919.871 1083.89C921.582 1072.33 939.065 1064.09 940.025 1048.14C941.206 1028.52 944.625 1008.28 945.75 988.633C947.052 978.387 942.043 965.916 941.917 956.358C941.487 923.983 928.111 895.731 923.364 864.625Z"/><path d="M1071.68 463.244C1074.1 464.815 1072.45 467.382 1072.11 469.996C1069.05 493.62 1053.44 512.1 1033.52 523.808C1032.76 523.529 1032.96 523.667 1032.71 523.434C1032.75 522.99 1033.51 522.202 1033.8 521.912C1049.03 507.003 1057.68 486.794 1063.36 466.582C1063.75 465.189 1067.61 464.691 1068.84 464.258L1071.68 463.244Z"/><path d="M760.978 464.708L762.723 465.166C765.947 466.086 769.467 466.611 772.791 467.309C777.507 484.718 781.416 499.434 792.314 514.372C793.189 515.572 796.236 519.675 796.262 521.232C795.65 522.11 792.831 519.772 792.398 519.484L791.519 518.53C771.681 503.858 766.263 487.636 760.978 464.708Z"/><path d="M1015.28 460.771C1019.38 465.762 1017.18 484.306 1016.12 491.013C1011.34 521.362 997.263 538.992 970.153 552.045C969.455 552.025 968.764 552.157 968.247 551.715C968.156 550.959 968.978 550.505 969.565 550.122C995 533.531 1011.91 505.404 1013.88 474.999C1014.23 469.622 1013.77 466.173 1015.28 460.771Z"/><path d="M836.259 577.526C840.625 579.246 858.031 588.227 861.424 591.191C864.259 593.667 867.445 598.962 872.044 602.829L870.972 603.008C860.956 604.763 859.269 603.994 849.921 602.482C841.29 594.385 840.778 588.606 836.259 577.526Z"/><path d="M1006.8 575.004C1006.58 579.426 1004.27 581.557 1002.43 585.423C993.557 604.108 989.002 603.897 969.491 603.986C969.2 600.492 981.097 590.433 983.993 589.095C993.353 584.771 998.934 581.825 1006.8 575.004Z"/><path d="M831.443 473.822C833.28 475.736 832.22 479.494 832.034 483.345C831.149 506.576 838.166 535.749 860.182 547.687C863.94 549.725 874.265 553.642 876.259 556.026C866.67 555.275 855.7 551.68 848.265 545.428C830.876 530.807 824.746 494.488 831.443 473.822Z"/><path d="M833.395 572.079C835.945 572.342 838.479 572.743 840.986 573.28C859.527 577.088 873.556 580.635 881.748 600.272C876.103 598.095 869.211 590.11 864.073 585.794C855.092 578.248 840.604 579.466 833.395 572.079Z"/><path d="M1009.17 569.494C1009.11 569.388 1009.88 570.594 1009.5 570.625C1004.55 571.629 999.996 574.735 995.756 576.666C979.3 584.16 971.722 590.102 961.898 605.409C958.119 602.266 966.587 595.004 969.176 591.086C976.77 579.591 995.994 571.499 1009.17 569.494Z"/><path d="M927.576 569.365C930.92 568.879 935.633 568.938 939.136 568.872C930.378 575.635 931.047 575.788 920.622 579.465C919.892 579.392 907.466 578.23 909.76 574.299C911.628 571.099 923.516 569.886 927.576 569.365Z"/><path d="M1056.31 416.576C1062.44 421.081 1066.91 440.376 1064.38 448.731C1058.03 452.906 1061.57 436.788 1058.62 432.097C1057.88 430.924 1056.64 418.909 1056.31 416.576Z"/><path d="M805.438 405.777C805.658 408.171 805.372 408.896 804.531 411.169C803.699 413.489 802.903 415.823 802.142 418.168C798.214 430.605 794.027 438.329 784.41 446.974C784.409 446.958 803.395 409.289 805.438 405.777Z"/><path d="M774.432 418.726C775.07 421.57 771.546 431.724 770.157 434.521C765.787 443.324 772.406 450.404 765.345 454.14C759.983 448.376 770.133 424.555 774.432 418.726Z"/><path fill="#795D48" d="M835.518 1148.01C884.889 1148.02 947.709 1143.45 994.533 1159.96C1007.55 1164.54 1022.64 1179.66 1026.51 1193.03C1042.85 1249.53 1004.33 1279.59 955.563 1295.56C1025.55 1315.32 1008.2 1409.78 1053.26 1433.64C1054.84 1434.48 1056.17 1434.9 1057.23 1436.4C1058.02 1437.52 1057.41 1438.76 1057.2 1440.02C1052.9 1442.36 1025.03 1441.71 1018.13 1441.73C1006.01 1435.4 1001.65 1426.19 996.012 1414.54C979.926 1380.53 964.493 1321.24 939.166 1299.14C918.144 1303.68 903.638 1305.38 881.939 1305.79C882.142 1349.83 876.692 1400.53 892.855 1441.33C873.795 1441.57 854.283 1441.35 835.186 1441.35C836.038 1439.28 836.872 1437.2 837.688 1435.11C848.472 1407.45 846.93 1387.26 846.966 1358.11L846.982 1292.35L846.972 1227.91C846.935 1195.74 848.611 1177.99 835.518 1148.01Z"/><path d="M894.514 1153.52C926.334 1153.07 968.484 1154.91 987.234 1184.37C1009.47 1219.29 996.387 1259.21 964.663 1281.33C940.193 1296.31 910.001 1299.63 881.972 1300.08L882.057 1153.56L894.514 1153.52Z"/><path fill="#795D48" d="M1607.29 1148.43C1643.49 1147.84 1667.15 1157.25 1696.76 1176.62C1692.95 1187.33 1689.48 1201.51 1686.43 1212.77C1656.63 1173.53 1616.94 1131.24 1562.29 1167.21C1553.53 1172.98 1544.63 1188.16 1544.28 1198.86C1542.66 1248.55 1606.53 1265.27 1641.64 1283.52C1677.66 1301.62 1718.14 1324.74 1713.63 1371.19C1711.78 1390.94 1702 1409.1 1686.52 1421.5C1660.96 1442.36 1623.37 1445.63 1591.76 1442.51C1558.92 1439.44 1539.04 1430.03 1516.29 1406.92C1514.81 1391.88 1512.38 1370.54 1512.64 1355.84C1515.79 1359.95 1520.17 1368.86 1522.74 1373.72C1530.52 1388.4 1539.31 1400.83 1551.82 1411.93C1571.74 1429.62 1597.87 1438.67 1624.47 1437.1C1641.7 1436.01 1659.1 1429.57 1670.43 1416.06C1678.73 1406 1682.69 1393.06 1681.44 1380.08C1674.84 1306.57 1521.92 1307.11 1515.91 1228.02C1511.88 1174.9 1561.3 1151.15 1607.29 1148.43Z"/><path fill="#795D48" d="M476.977 1148.41C525.466 1143.8 567.307 1158.91 600.506 1194.19C597.497 1210.01 594.82 1225.88 592.478 1241.81C565.185 1194.03 522.13 1147.14 462.04 1158.54C387.733 1173.76 361.988 1252.29 374.966 1319.52C388.915 1391.77 450.903 1441.15 525.488 1425.76C564.885 1417.91 588.218 1393.11 611.769 1363.27C612.471 1363.16 613.173 1363.04 613.874 1362.92L614.469 1364.22C612.45 1371.07 604.037 1380.89 599.414 1386.47C573.392 1418.54 535.614 1438.85 494.514 1442.88C454.647 1446.5 414.73 1435.46 383.933 1409.51C354.668 1384.5 336.662 1348.78 333.948 1310.38C330.842 1270.41 343.874 1230.86 370.133 1200.57C398.284 1168.06 434.528 1151.69 476.977 1148.41Z"/><path fill="#795D48" d="M621.927 1148L815.595 1148.12C812.808 1163.81 809.713 1179.43 806.313 1194.99C770.599 1146.89 719.844 1153.12 666.235 1153.19C666.039 1196.2 666.145 1239.22 666.553 1282.23C708.107 1282.23 730.865 1285.45 765.945 1260.9C761.072 1273.05 756.574 1286.87 752.16 1299.33C719.799 1284.3 701.464 1287.28 666.411 1287.51L666.133 1324.25C665.658 1361.28 666.173 1399.47 666.197 1436.59C727.922 1435.63 768.706 1444.17 814.844 1394.86C813.76 1410.41 812.827 1425.98 812.046 1441.56C750.517 1440.23 684.175 1441.27 622.383 1441.6C632.575 1407.89 632.285 1397.31 632.417 1362.82L632.573 1298.29L632.435 1229.37C632.308 1197.78 633.72 1178.09 621.927 1148Z"/><path fill="#795D48" d="M1233.01 1148L1335.48 1148.05C1330.15 1158.45 1325.32 1171.15 1324.4 1182.9C1322.06 1212.81 1324.03 1243.32 1323.46 1273.33C1323.33 1304.25 1323.26 1334.9 1323.6 1365.78C1325.72 1449.09 1436.31 1456.71 1468.12 1388.2C1475.42 1373.13 1476.94 1357.13 1476.9 1340.53C1476.85 1311.19 1476.7 1281.55 1476.73 1252.21C1476.77 1209.84 1481.48 1184.83 1457.71 1147.9L1499.53 1148.08C1478.46 1180.15 1481.92 1202.06 1481.89 1238.82L1481.98 1312.85C1482 1322.33 1481.81 1332.24 1482.01 1341.64C1482.98 1387.37 1460.53 1428 1413.06 1437.56C1361.81 1447.89 1302.7 1427.37 1291.11 1371.11C1288 1355.93 1288.98 1337.97 1289 1322.39L1289.16 1232.83C1289.19 1205.12 1291.99 1175.01 1279.35 1149.61C1234.78 1184.66 1226.56 1229.61 1209.81 1280.54C1195.13 1324.2 1180.74 1367.96 1166.62 1411.81C1164.89 1408.33 1164.94 1406.58 1162.49 1403.23C1167.64 1393.27 1182.49 1345.16 1187.18 1331.08C1197.57 1300.11 1207.79 1269.09 1217.84 1238.01C1227.77 1207.57 1240.36 1180.54 1233.01 1148Z"/><path fill="#795D48" d="M1019.05 1147.99C1042.3 1148.3 1066.16 1148.04 1089.46 1148.02C1083.8 1157.65 1081.21 1167.81 1083.22 1178.89C1087.38 1201.86 1097.61 1223.9 1105.36 1245.85C1124.02 1298.45 1143.06 1350.91 1162.49 1403.23C1164.94 1406.58 1164.89 1408.33 1166.62 1411.81C1163.07 1420.94 1159.54 1433 1156.45 1442.5L1142.22 1442.74L1073.09 1254.02C1063.81 1229 1054.68 1201.26 1043.95 1176.96C1039.79 1167.56 1026.65 1155.43 1019.05 1147.99Z"/><path d="M681.171 1492.67C686.736 1491.95 709.922 1492.1 714.845 1493.29C737.558 1497.09 753.972 1508.84 749.941 1534C748.01 1546.06 739.121 1553.73 728.773 1558.86C716.475 1564.92 698.984 1565.4 685.393 1564.37C683.814 1579.6 683.97 1597.3 688.435 1611.96L668.604 1611.96C674.934 1588.01 674.65 1517 668.917 1493L681.171 1492.67Z"/><path fill="#795D48" d="M668.917 1493L681.171 1492.67C682.966 1493.16 683.215 1493.17 684.794 1493.92C684.505 1509.61 684.019 1547.59 685.287 1562.46C685.354 1563.14 685.473 1563.71 685.393 1564.37C683.814 1579.6 683.97 1597.3 688.435 1611.96L668.604 1611.96C674.934 1588.01 674.65 1517 668.917 1493Z"/><path fill="#795D48" d="M714.845 1493.29C737.558 1497.09 753.972 1508.84 749.941 1534C748.01 1546.06 739.121 1553.73 728.773 1558.86C726.032 1557.26 726.525 1556.99 725.791 1553.74L726.567 1552.89C744.921 1533.14 738.721 1503.43 711.032 1495.38C712.856 1494.08 712.859 1493.98 714.845 1493.29Z"/><path fill="#5D4738" d="M685.287 1562.46C701.489 1562.37 711.156 1564.18 724.578 1554.59L725.791 1553.74C726.525 1556.99 726.032 1557.26 728.773 1558.86C716.475 1564.92 698.984 1565.4 685.393 1564.37C685.473 1563.71 685.354 1563.14 685.287 1562.46Z"/><path fill="#5D4738" d="M681.171 1492.67C686.736 1491.95 709.922 1492.1 714.845 1493.29C712.859 1493.98 712.856 1494.08 711.032 1495.38C706.834 1495.37 703.614 1494.47 699.498 1494.21C694.443 1493.9 689.871 1494.49 684.794 1493.92C683.215 1493.17 682.966 1493.16 681.171 1492.67Z"/><path d="M1118.99 1542.96C1127.09 1538.34 1138.05 1536.92 1147.17 1538.67C1157.14 1540.77 1165.85 1546.08 1171.56 1554.64C1177.55 1563.55 1179.52 1574.56 1176.99 1585C1174.72 1594.27 1168.79 1602.22 1160.57 1607.07C1116.53 1633.42 1073.06 1570.37 1118.99 1542.96Z"/><path fill="#795D48" d="M1137.34 1540.32C1137.66 1537.62 1144.54 1538.79 1147.17 1538.67C1157.14 1540.77 1165.85 1546.08 1171.56 1554.64C1177.55 1563.55 1179.52 1574.56 1176.99 1585C1174.72 1594.27 1168.79 1602.22 1160.57 1607.07C1116.53 1633.42 1073.06 1570.37 1118.99 1542.96L1121.05 1544.29C1111.33 1553.46 1111.34 1561.43 1112.17 1574C1115.08 1618.24 1172.52 1626.06 1165.19 1574.49C1162.78 1557.56 1154.08 1545.43 1137.34 1540.32Z"/><path fill="#5D4738" d="M1118.99 1542.96C1127.09 1538.34 1138.05 1536.92 1147.17 1538.67C1144.54 1538.79 1137.66 1537.62 1137.34 1540.32C1128.38 1541.56 1129.32 1540.28 1121.05 1544.29L1118.99 1542.96Z"/><path fill="#795D48" d="M782.771 1537.4C788.915 1536.76 797.965 1537.44 803.391 1541.23C825.469 1556.01 813.433 1582.09 818.798 1603.51C819.559 1606.55 820.214 1608.98 821.1 1612.04L804.862 1612.02C804.776 1606.56 804.758 1601.09 804.809 1595.62C792.776 1611.05 779.006 1619.21 760.505 1608.08C744.557 1591.48 752.811 1572.37 773.38 1565.57C783.537 1562.22 794.124 1561.28 804.734 1560.65C804.574 1559.75 804.426 1558.85 804.288 1557.94C802.701 1547.02 798.583 1540.06 786.491 1540.3C776.742 1540.5 770.566 1547.05 764.399 1553.49C766.634 1537 765.222 1539.32 782.771 1537.4Z"/><path d="M801.564 1563.46C807.258 1562.22 804.456 1572.76 804.91 1576.99C806.988 1596.39 790.863 1611.51 773.04 1605.42C764.129 1597.73 763.213 1587.92 768.931 1577.43C775.132 1566.07 789.863 1564.61 801.564 1563.46Z"/><path fill="#795D48" d="M966.653 1538.03L982.628 1538.29L982.358 1553.89C997.494 1536.77 1020.83 1528.81 1032.79 1553.57C1038.12 1547.58 1045.11 1540.99 1052.87 1539.29C1090.56 1531.01 1083.02 1571.81 1084.06 1594.91C1084.34 1601.32 1085.35 1606.31 1086.67 1612.07L1068.11 1612.05C1071.43 1600.7 1071.08 1592.63 1071.75 1580.98C1072.86 1561.59 1071.64 1531.59 1042.98 1546.67C1038.19 1550.09 1036.67 1552.24 1033.01 1556.68C1034.92 1578.14 1030.32 1589.22 1036.84 1612.01L1018.1 1612C1021.59 1598.46 1022.69 1575.15 1021.14 1561.17C1018.16 1534.14 994.531 1540.65 982.16 1557.56C982.075 1575.26 980.758 1595.24 985.713 1612.06L966.981 1611.98C971.69 1591.89 971.207 1558.24 966.653 1538.03Z"/><path d="M1340.78 1538.53C1345.3 1537.44 1350.65 1537.89 1355.16 1538.96C1373.41 1541.25 1385.19 1567.74 1377.52 1569.21C1365.91 1570.78 1331.59 1570.07 1318.32 1570.05C1318.57 1579.84 1321.75 1590.61 1329.08 1597.47C1334.96 1603 1342.84 1605.9 1350.9 1605.49C1360.44 1605.07 1367.14 1601.81 1374.29 1595.79L1378.15 1595.35C1353.22 1628.51 1300.19 1611.98 1307.99 1568C1308.86 1563.1 1311.46 1557.1 1314.56 1553.17C1321.01 1545.01 1330.44 1539.74 1340.78 1538.53Z"/><path fill="#795D48" d="M1378.15 1595.35C1353.22 1628.51 1300.19 1611.98 1307.99 1568C1308.86 1563.1 1311.46 1557.1 1314.56 1553.17C1321.01 1545.01 1330.44 1539.74 1340.78 1538.53L1339.55 1540.45C1325.31 1543.22 1320.77 1551.89 1318.28 1565.18C1317.49 1567.23 1317.84 1567.74 1318.32 1570.05C1318.57 1579.84 1321.75 1590.61 1329.08 1597.47C1334.96 1603 1342.84 1605.9 1350.9 1605.49C1360.44 1605.07 1367.14 1601.81 1374.29 1595.79L1378.15 1595.35Z"/><path fill="#795D48" d="M1340.78 1538.53C1345.3 1537.44 1350.65 1537.89 1355.16 1538.96C1373.41 1541.25 1385.19 1567.74 1377.52 1569.21C1375.24 1569.04 1371.16 1569.47 1369.57 1568.1C1364.88 1551.51 1362.09 1545.54 1345.29 1540.2C1342.51 1540.55 1342.21 1540.57 1339.55 1540.45L1340.78 1538.53Z"/><path fill="#5D4738" d="M1340.78 1538.53C1345.3 1537.44 1350.65 1537.89 1355.16 1538.96C1351.25 1539.2 1348.76 1538.55 1345.29 1540.2C1342.51 1540.55 1342.21 1540.57 1339.55 1540.45L1340.78 1538.53Z"/><path fill="#5D4738" d="M1318.32 1570.05C1317.84 1567.74 1317.49 1567.23 1318.28 1565.18C1318.4 1565.75 1318.68 1567.67 1319.19 1567.7C1331.65 1568.47 1357.97 1567.59 1369.57 1568.1C1371.16 1569.47 1375.24 1569.04 1377.52 1569.21C1365.91 1570.78 1331.59 1570.07 1318.32 1570.05Z"/><path fill="#795D48" d="M1238.04 1553.57C1245.17 1546.33 1254.18 1539.76 1264.51 1538.19C1275.53 1535.92 1290.03 1544.59 1290.91 1556.51C1292.41 1576.86 1289.86 1591.56 1294.84 1612.06C1288.59 1612.07 1282.34 1612.04 1276.1 1611.97C1280.15 1596.39 1279.3 1590.28 1279.34 1574.25C1279.24 1561.36 1281.33 1541.19 1260.5 1543.21C1250.92 1544.13 1243.7 1550.31 1237.87 1557.67C1237.77 1577.05 1236.54 1593.05 1240.7 1612.02C1234.47 1612.04 1228.24 1612.03 1222.01 1611.99C1227.69 1590.98 1225.95 1559.49 1222.34 1538.13L1238.05 1538.15L1238.04 1553.57Z"/><path fill="#795D48" d="M851.028 1514.57L851.05 1536.92C850.992 1537.63 850.934 1538.34 850.875 1539.05C851.346 1558.3 850.511 1577.75 851.123 1597.01C851.494 1599.6 852.98 1604.36 854.917 1606.09C860.107 1610.71 865.819 1606.59 869.769 1602.76C872.475 1602.43 871.294 1605.34 870.262 1606.53C863.922 1613.84 850.65 1616.08 843.718 1608.28C837.002 1600.73 838.914 1588.65 838.626 1579.12C838.225 1565.87 839.495 1551.66 837.925 1538.6C837.762 1537.42 832.325 1538.48 830.62 1537.75C829.628 1535.05 848.106 1517.4 851.028 1514.57Z"/><path fill="#795D48" d="M877.63 1537.88C882.907 1537.88 888.184 1537.97 893.458 1538.14C893.458 1543.82 893.224 1550.2 893.504 1555.75L895.195 1556.98C891.586 1570.17 893.119 1598.65 896.265 1612.13L876.931 1612.1C882.983 1594.37 882.192 1556.07 877.63 1537.88Z"/><path fill="#795D48" d="M1191.62 1538.11C1196.98 1538.19 1202.33 1538.23 1207.69 1538.23C1207.87 1560.12 1205.97 1585.85 1209.75 1607.52C1210.15 1609.88 1211.01 1609.8 1209.73 1612.04C1203.98 1612.04 1197.57 1612.19 1191.89 1611.9C1196.75 1593.27 1196.76 1556.81 1191.62 1538.11Z"/><path fill="#795D48" d="M935.889 1538.37C941.035 1538.28 946.183 1538.28 951.329 1538.39C951.35 1559.77 950.214 1581.79 952.311 1602.99C952.744 1607.36 956.467 1611.36 952.226 1612.05C946.983 1612.06 941.147 1612.22 935.953 1611.96C939.401 1598.26 939.577 1588.25 939.118 1574.24C938.845 1565.92 939.589 1557.81 938.232 1549.49C937.603 1545.63 936.319 1542.01 935.889 1538.37Z"/><path fill="#795D48" d="M939.649 1513.73C942.221 1512.17 945.443 1512.15 948.034 1513.68C950.624 1515.21 952.164 1518.04 952.041 1521.05C951.918 1524.05 950.153 1526.75 947.446 1528.06C943.521 1529.96 938.793 1528.45 936.708 1524.62C934.624 1520.78 935.918 1515.99 939.649 1513.73Z"/><path fill="#795D48" d="M1195.99 1513.55C1198.54 1512.15 1201.65 1512.25 1204.12 1513.79C1206.59 1515.34 1208.03 1518.1 1207.89 1521.01C1207.75 1523.91 1206.05 1526.52 1203.45 1527.82C1199.52 1529.79 1194.74 1528.24 1192.71 1524.35C1190.67 1520.46 1192.13 1515.65 1195.99 1513.55Z"/><path fill="#795D48" d="M903.764 1542.62C906.906 1540.64 922.922 1533.17 928.448 1539.2C929.07 1539.88 925.264 1548.63 924.522 1550.76C916.904 1545.42 915.744 1544.87 906.743 1545.46C904.055 1545.53 904.029 1545.25 903.764 1542.62Z"/><path fill="#795D48" d="M908.273 649.18C920.607 654.776 902.907 659.412 911.747 663.565C916.17 665.642 925.872 666.084 930.357 663.57C933.07 662.05 933.514 661.326 935.238 663.101C930.345 668.83 923.662 672.515 916.633 669.539C903.118 663.818 904.899 658.681 908.273 649.18Z"/><path fill="#795D48" d="M887.081 607.618C888.557 607.662 890.033 607.728 891.508 607.817C901.875 608.521 900.545 612.479 898.64 620.44C892.828 621.405 888.777 611.482 887.081 607.618Z"/><path fill="#795D48" d="M942.055 618.89C940.271 607.151 945.647 607.29 956.489 606.59C953.566 610.777 947.717 620.165 942.055 618.89Z"/><path fill="#5D4738" d="M893.504 1555.75C897.103 1549.77 897.943 1547.18 903.764 1542.62C904.029 1545.25 904.055 1545.53 906.743 1545.46L905.183 1546.35C899.991 1549.22 898.344 1552.18 895.195 1556.98L893.504 1555.75Z"/><path fill="#5D4738" d="M851.05 1536.92C856.379 1537.04 861.71 1537.02 867.037 1536.85C868.209 1536.82 869.418 1537.04 869.712 1538.25C868.837 1539.56 853.671 1539.03 850.875 1539.05C850.934 1538.34 850.992 1537.63 851.05 1536.92Z"/><path fill="#5D4738" d="M1374.29 1595.79C1375.84 1594.14 1378.81 1589.9 1381.3 1590.13C1380.81 1592.19 1379.68 1593.91 1378.15 1595.35L1374.29 1595.79Z"/></svg>